<svg width="26" height="26" viewBox="0 0 26 26" fill="none" xmlns="http://www.w3.org/2000/svg" aria-hidden="true">
  <g stroke="currentColor" stroke-width="1.6" stroke-linecap="round" stroke-linejoin="round">
    <path d="M13 2v22"/>
    <path d="M3.46 7.5l19.08 11"/>
    <path d="M3.46 18.5l19.08-11"/>
    <path d="M13 2l-2.6 2.6M13 2l2.6 2.6"/>
    <path d="M13 24l-2.6-2.6M13 24l2.6-2.6"/>
    <path d="M3.46 7.5l.95-3.05M3.46 7.5l-3.05.95"/>
    <path d="M22.54 18.5l-.95 3.05M22.54 18.5l3.05-.95"/>
    <path d="M22.54 7.5l.95 3.05M22.54 7.5l3.05.95"/>
    <path d="M3.46 18.5l-.95-3.05M3.46 18.5l-3.05.95"/>
  </g>
</svg>
